<svg width="42" height="42" viewBox="0 0 42 42" fill="none" xmlns="http://www.w3.org/2000/svg">
<path d="M35.1406 1H6.85938C3.62848 1 1 3.62848 1 6.85938V35.1406C1 38.3715 3.62848 41 6.85938 41H35.1406C38.3715 41 41 38.3715 41 35.1406V6.85938C41 3.62848 38.3715 1 35.1406 1ZM38.6562 35.1406C38.6562 37.0791 37.0791 38.6562 35.1406 38.6562H6.85938C4.9209 38.6562 3.34375 37.0791 3.34375 35.1406V6.85938C3.34375 4.9209 4.9209 3.34375 6.85938 3.34375H35.1406C37.0791 3.34375 38.6562 4.9209 38.6562 6.85938V35.1406Z" fill="#070707" stroke="#070707" stroke-width="0.5"/>
<path d="M27.2415 16.1973C28.1314 16.223 28.9749 16.4221 29.7347 16.8965C30.7087 17.5047 31.3027 18.395 31.6507 19.4639C31.9219 20.2967 32.0111 21.1562 32.012 22.0273C32.0142 24.5376 32.0133 27.0483 32.013 29.5586C32.013 29.6029 32.0092 29.6472 32.0062 29.6982H27.7386V29.5176L27.7396 22.5918C27.7395 22.1 27.7022 21.6135 27.5775 21.1328C27.319 20.1383 26.6305 19.6683 25.8958 19.5664C25.1625 19.4648 24.3827 19.73 23.9378 20.2021C23.4926 20.6747 23.2001 21.2098 23.1878 21.8721C23.1851 22.0273 23.1761 22.1855 23.1761 22.3418C23.1752 24.7309 23.1751 27.1206 23.1751 29.5098V29.6973H18.9173V16.5117H23.1732V18.2793L23.1819 18.2832C23.1927 18.2878 23.2055 18.293 23.2171 18.2979L23.2278 18.3027L23.2347 18.293C23.265 18.2521 23.2971 18.2114 23.3275 18.1699C23.7564 17.5786 24.2485 17.0556 24.9017 16.7021C25.6313 16.307 26.4199 16.1737 27.2415 16.1973Z" fill="#070707" stroke="#070707" stroke-width="0.0306072"/>
<path d="M16.2662 16.5078V29.7051H12.0309V16.5078H16.2662Z" fill="#070707" stroke="#070707" stroke-width="0.0306072"/>
<path d="M14.3309 9.92969C14.9986 9.9288 15.5677 10.1637 15.9706 10.5654C16.3735 10.9673 16.6109 11.5368 16.6132 12.2061C16.6153 12.8678 16.3771 13.4321 15.9686 13.8311C15.56 14.23 14.9805 14.4645 14.2997 14.4648C12.9719 14.4657 12.026 13.5249 12.0233 12.2012C12.0209 10.8765 12.9801 9.9315 14.3309 9.92969Z" fill="#070707" stroke="#070707" stroke-width="0.0306072"/>
</svg>
